<?xml version="1.0" encoding="UTF-8"?>
<svg version="1.1" xmlns="http://www.w3.org/2000/svg" width="1756" height="675">
<path d="M0 0 C4.70530103 0.51355793 7.70073207 1.75513662 11.625 4.375 C12.54539063 4.98085937 13.46578125 5.58671875 14.4140625 6.2109375 C16.00796183 7.31366544 17.57947193 8.45070039 19.109375 9.640625 C21.16176311 11.23957589 21.16176311 11.23957589 24.625 12.375 C28 14 28 14 29.4375 16.5 C30 19 30 19 30 22 C30.96679688 21.86980469 31.93359375 21.73960938 32.9296875 21.60546875 C42.83546153 20.55604516 48.95435649 21.50305075 57.05859375 27.53125 C63.31502193 32.63004386 63.31502193 32.63004386 65 36 C64.61938388 40.96237244 62.81042686 44.61391547 60.3125 48.8125 C59.50729753 50.20933869 58.70265075 51.6064978 57.8984375 53.00390625 C57.44694336 53.78137207 56.99544922 54.55883789 56.53027344 55.35986328 C53.46985952 60.63990734 50.44925131 65.94208918 47.4375 71.25 C46.80561768 72.34546143 46.17373535 73.44092285 45.52270508 74.56958008 C44.93642334 75.6036499 44.3501416 76.63771973 43.74609375 77.703125 C42.95223267 79.08999512 42.95223267 79.08999512 42.14233398 80.50488281 C40.72248346 83.14879551 40.72248346 83.14879551 41 87 C42.11117187 86.94199219 43.22234375 86.88398438 44.3671875 86.82421875 C54.50382361 86.45136386 62.15887064 86.80423887 70.0859375 93.85546875 C71.29744841 95.0546173 72.48163827 96.28258077 73.625 97.546875 C75.65025286 99.68719904 76.79492091 99.98371003 79.75390625 100.21875 C83.36426161 99.97545289 85.67962697 99.04117515 88.9375 97.5 C93.51612285 95.50535242 96.93524738 94.17310161 102 95 C104.73754459 96.19328867 106.66702805 97.68823645 108.83984375 99.72265625 C112.1141478 102.78328211 114.35939247 104.79370266 118.6875 106.1875 C122.77218281 105.95629154 123.97382244 104.62799631 127 102 C129.98954787 101.6026857 131.44706965 101.61923958 133.95703125 103.34765625 C134.56933594 103.91355469 135.18164062 104.47945313 135.8125 105.0625 C138.92132408 107.50888306 139.74466895 107.98352703 143.875 108.25 C148.32449603 107.31095449 151.89977453 104.82164107 155.60546875 102.27734375 C158.38390733 100.79520767 159.89876987 100.48143365 163 101 C164.58984375 102.49609375 164.58984375 102.49609375 165.9375 104.4375 C167.94255018 106.93233343 168.91661093 107.96011827 171.875 109.375 C176.8513641 108.77783631 179.61819063 105.52704045 183 102 C183.43441406 101.40445313 183.86882812 100.80890625 184.31640625 100.1953125 C186.76927652 96.98120663 188.30382448 96.10506796 192.390625 95.48828125 C201.21801097 95.23330695 207.41293496 96.65701491 214.88671875 101.12890625 C217.58846731 102.24256601 219.71491393 102.16054872 222.625 102.0625 C227.80555556 101.90277778 227.80555556 101.90277778 230 103 C230 103.66 230 104.32 230 105 C233.11170034 106.03723345 235.18052881 106.39147643 238.19140625 104.953125 C239.73506194 104.02327487 241.27802745 103.09227802 242.8203125 102.16015625 C245.72689699 100.61310321 247.77537686 100.38578607 251 101 C252 102 253 103 254 104 C257.50013278 103.57502604 260.23388134 102.47499492 263.375 100.9375 C270.42275343 98.0035936 279.72677912 97.57559304 287 100 C299.34411225 100.97858195 310.7960327 99.60198365 322 94 C329.85090587 93.31731253 337.33328581 94.24354103 345.0625 95.5 C354.92811633 97.09277549 364.39603249 98.49235182 374 95 C374 94.34 374 93.68 374 93 C372.31562963 91.69026192 370.57553843 90.45175407 368.8125 89.25 C364.442461 86.16394153 361.13005079 83.31731143 358 79 C358.90330946 76.09581151 359.49583447 74.37963062 361.9609375 72.5234375 C371.70231206 67.88919135 381.83146455 65.91137873 392.39306641 64.08935547 C395.42422471 63.55381782 398.26983106 62.90950586 401.19140625 61.9296875 C405.18015024 60.60935221 408.84265268 60.45400692 413 61 C413.78375 61.515625 414.5675 62.03125 415.375 62.5625 C418.50330649 64.27562022 419.3224349 63.93596786 422.75 63.375 C428.26722449 62.65081762 432.37723775 63.74813746 437.5625 65.4375 C443.16934917 67.26101533 447.87698417 68.46810798 453.8359375 68.109375 C456.02353139 67.99881069 457.95972068 68.19183291 460.125 68.5 C464.43446683 69.03772313 468.72485594 69.11507177 473.0625 69.125 C473.76391113 69.12661133 474.46532227 69.12822266 475.18798828 69.12988281 C478.70850639 69.10824881 482.04523274 68.92043008 485.5 68.25 C489.15574848 67.98887511 489.85375341 68.23580973 492.875 69.9375 C497.69855891 72.59138859 501.58174904 72.96118775 507 72 C512.46104728 70.36469032 517.72860107 68.15608858 523 66 C532.11511855 62.31889443 540.84118886 61.64925695 550.3125 64.73046875 C554.39727308 66.66004906 557.97241904 69.27254709 561.53466797 72.03881836 C564.53793192 74.39907545 564.53793192 74.39907545 568.1953125 74.890625 C570.2597943 73.9201157 570.2597943 73.9201157 573 72 C574.98703761 72.20916185 576.97323434 72.43070417 578.953125 72.69921875 C582.91198343 73.09002913 586.8364185 73.16171639 590.8125 73.1875 C591.89543335 73.20659424 591.89543335 73.20659424 593.00024414 73.22607422 C597.25200709 73.23454106 601.16387096 72.81246825 605.33398438 71.9753418 C612.05092358 70.82954162 618.54752689 70.8723222 625.34247398 71.09599686 C627.51127193 71.16606734 629.67995297 71.2194295 631.84931946 71.26864624 C638.00822015 71.41079098 644.16626519 71.5780315 650.32397461 71.76464844 C672.24379337 72.79817564 672.24379337 72.79817564 693.66357422 68.90039062 C697.68308793 67.81565723 701.30209576 67.76516085 705.4375 67.875 C706.64043701 67.89771973 706.64043701 67.89771973 707.86767578 67.92089844 C708.86516846 67.95231934 708.86516846 67.95231934 709.8828125 67.984375 C716.21459053 68.0816688 722.50207615 67.60084656 728.8125 67.125 C730.50427368 67.00680908 730.50427368 67.00680908 732.23022461 66.88623047 C733.2950708 66.80260254 734.35991699 66.71897461 735.45703125 66.6328125 C736.8797937 66.52283936 736.8797937 66.52283936 738.33129883 66.41064453 C741.1385589 65.97867935 743.40155977 65.12486232 746 64 C747.57520634 63.61127973 749.15894387 63.25517731 750.75 62.9375 C753.65761214 62.51664392 753.65761214 62.51664392 756 61 C767.95060444 59.07936714 779.9963474 59.45491097 791.85546875 61.6328125 C796.40343133 62.16387894 800.70446915 61.62718787 805.22265625 60.99609375 C808.61704366 61.00086785 809.36088252 62.01428104 812 64 C815.01240029 64.17512096 815.01240029 64.17512096 818.25 63.875 C823.76972669 63.74649195 826.38658333 64.31064336 830.71875 67.578125 C833.75189096 69.46864437 836.9819099 70.40623805 840.375 71.4375 C848.19585051 73.87565715 854.95845566 77.16400336 861.0625 82.6875 C868.71201529 88.70945885 876.7336336 88.23912252 886.0625 87.5625 C888.32347681 87.40679243 890.58523504 87.26198985 892.84765625 87.12890625 C893.83773682 87.05744385 894.82781738 86.98598145 895.84790039 86.91235352 C899.04275787 87.00118891 901.74968545 87.71085392 904.82008362 88.54142761 C908.84467728 89.38805069 912.87104215 89.20721999 916.96484375 89.1171875 C918.37889748 89.09618988 918.37889748 89.09618988 919.82151794 89.07476807 C922.86067469 89.02275877 925.89885761 88.95114401 928.9375 88.875 C929.97167053 88.85177673 931.00584106 88.82855347 932.0713501 88.80462646 C947.70119017 88.43353496 962.68114448 87.26810457 978 84 C980.31156331 83.53956285 982.62474686 83.08974125 984.93994141 82.64794922 C986.79700557 82.28921319 988.64891223 81.90402288 990.5 81.515625 C997.93254673 80.4206516 1005.10828465 81.03821038 1012.5 82.1875 C1013.33225098 82.31624512 1014.16450195 82.44499023 1015.02197266 82.57763672 C1020.35750875 83.49256954 1024.71927989 84.76034545 1029.2109375 87.9140625 C1032.08965955 89.66140907 1034.74614325 90.2105533 1038.0703125 89.65234375 C1042.54528826 88.09546055 1046.38023497 86.21190481 1050.4375 83.75 C1054.93743936 81.27968846 1057.97823481 80.15991347 1063.0703125 81.0546875 C1070.02379374 83.29834411 1076.50086162 86.69882434 1083 90 C1083.97839844 90.48339844 1084.95679688 90.96679688 1085.96484375 91.46484375 C1092.43568339 94.66448483 1092.43568339 94.66448483 1095.4375 96.44921875 C1101.97967257 100.18030155 1106.67308526 100.75312394 1114 99 C1119.88244484 97.21163458 1125.64479954 95.27836551 1131.05859375 92.33984375 C1134.30120815 90.86279629 1136.22507224 90.74219995 1139.75 90.9375 C1144.54612333 91.06696591 1148.60206816 90.5717835 1153.25390625 89.5 C1156.59151148 88.89229948 1159.86213773 88.7303198 1163.25 88.5625 C1168.43955956 88.27971875 1173.25123066 87.61607632 1178.3125 86.4375 C1185.69927799 84.73413725 1192.21737399 84.6741411 1199.7109375 85.48046875 C1222.68953796 87.78594321 1245.09131025 84.07244697 1265.3359375 72.34765625 C1268.29021272 70.85319151 1270.72180141 70.37054106 1274 70 C1274.79664063 69.90976563 1275.59328125 69.81953125 1276.4140625 69.7265625 C1278.69879502 69.62161012 1280.74393189 69.60540254 1283 70 C1285.36876426 72.25032605 1286.55847389 74.11694778 1288 77 C1290.6507047 77.75169238 1293.24526622 78.37558364 1295.9375 78.9375 C1296.99227539 79.17243164 1296.99227539 79.17243164 1298.06835938 79.41210938 C1300.70518665 79.98119248 1303.35147295 80.48803045 1306 81 C1307.23121582 81.26385498 1308.46243164 81.52770996 1309.73095703 81.79956055 C1324.25216755 84.72565223 1338.67016949 84.18461086 1353.4140625 83.86303711 C1367.62553693 83.57819506 1380.2680437 84.27641507 1394 88 C1394.66 88 1395.32 88 1396 88 C1396.144375 87.195625 1396.28875 86.39125 1396.4375 85.5625 C1397 83 1397 83 1398 82 C1400.36276704 81.72632042 1402.69090855 81.52429381 1405.0625 81.375 C1405.7755127 81.32561279 1406.48852539 81.27622559 1407.22314453 81.2253418 C1411.6761677 80.96992053 1415.90871841 81.11487719 1420.33911133 81.59570312 C1428.69883244 82.48590967 1433.23471533 81.0305963 1440 76 C1446.23946147 72.21639057 1451.43024945 70.43175144 1458.75 70.140625 C1461.03588758 70.14478531 1461.03588758 70.14478531 1463 69 C1464.95777517 68.95324716 1466.91702695 68.96243697 1468.875 69 C1473.31262203 69.03905498 1477.64491915 68.92016621 1482.0625 68.5 C1506.83667648 66.25372119 1506.83667648 66.25372119 1513.63241065 71.18440485 C1515.56802189 73.75409902 1515.37604128 75.58070626 1515.37752342 78.77999115 C1515.38534666 79.99285246 1515.39316991 81.20571378 1515.40123022 82.45532846 C1515.39474348 83.80823301 1515.38797348 85.16113622 1515.38095093 86.51403809 C1515.38440556 87.94579854 1515.38916882 89.37755633 1515.39513266 90.80930853 C1515.40769912 94.75315667 1515.40144679 98.69678806 1515.39217401 102.64063716 C1515.38540685 106.89018548 1515.39585311 111.13969563 1515.40411377 115.38923645 C1515.41747832 123.71782307 1515.41456128 132.04632874 1515.40587585 140.37491858 C1515.39911039 147.14161001 1515.39817764 153.9082787 1515.4014473 160.67497253 C1515.401907 161.63675025 1515.40236669 162.59852796 1515.40284032 163.58945045 C1515.40379947 165.54306766 1515.4047721 167.49668487 1515.4057581 169.45030206 C1515.41431997 187.7845752 1515.40446538 206.11880339 1515.388357 224.45306915 C1515.3749531 240.19676263 1515.37728097 255.94038975 1515.39111328 271.68408203 C1515.40715504 289.95116917 1515.41349592 308.21821688 1515.40427649 326.48531008 C1515.40332081 328.43188253 1515.4023777 330.378455 1515.4014473 332.32502747 C1515.40098447 333.28286663 1515.40052164 334.24070579 1515.40004479 335.22757038 C1515.39745068 341.98889665 1515.40183494 348.75019798 1515.40888596 355.51152039 C1515.41728558 363.74736316 1515.41505332 371.98312012 1515.39904372 380.21895301 C1515.39114021 384.42384687 1515.38810463 388.62859746 1515.39799118 392.83349037 C1515.4068958 396.67880712 1515.40207576 400.52384709 1515.38605852 404.36913854 C1515.38269265 405.76411041 1515.38444504 407.15910541 1515.39168589 408.55406255 C1515.40074127 410.4426955 1515.38970544 412.33139347 1515.37752342 414.22000885 C1515.37703637 415.27134711 1515.37654931 416.32268537 1515.37604749 417.40588236 C1515 420 1515 420 1513.60531104 421.8182807 C1509.12333855 425.11759982 1502.29946524 424.39359424 1497 424 C1490.6387385 423.01912521 1484.64038664 421.84128599 1478.828125 419.03125 C1473.33455016 416.51014237 1467.75955988 415.6278198 1461.8125 414.75 C1460.70769287 414.58234131 1459.60288574 414.41468262 1458.46459961 414.24194336 C1447.55638835 412.66600127 1437.98512084 411.76311202 1427.40625 415.38671875 C1418.555691 417.64246187 1407.77240375 413.88233765 1399 412 C1398.48953125 412.97195313 1397.9790625 413.94390625 1397.453125 414.9453125 C1388.67764036 431.61153186 1379.60212676 448.11327834 1370.51321411 464.60998535 C1369.80143753 465.90192173 1369.08990622 467.19399326 1368.37863159 468.48620605 C1367.37712022 470.30516022 1366.3743042 472.12338875 1365.37109375 473.94140625 C1364.5037561 475.51450562 1364.5037561 475.51450562 1363.61889648 477.11938477 C1362.12547691 479.7767302 1360.58308783 482.39529441 1359 485 C1355.40619908 483.6809986 1352.43156153 482.05334239 1349.25 479.9375 C1345.00230002 477.30494342 1341.78935566 476.32744298 1336.8125 476.30078125 C1335.9153125 476.15189453 1335.9153125 476.15189453 1335 476 C1334.34 475.01 1333.68 474.02 1333 473 C1331.96488281 473.01675781 1330.92976563 473.03351563 1329.86328125 473.05078125 C1325.04721684 472.98747606 1322.31304027 471.48213189 1318.1875 469.1875 C1313.6692223 466.77442351 1309.52689519 464.66125176 1304.5 463.5 C1299.69225983 462.23480522 1296.81852634 459.65258582 1293.30078125 456.23046875 C1291.48012247 453.10855835 1292.18455896 451.47263584 1293 448 C1294.20825195 445.28125 1294.20825195 445.28125 1295.73828125 442.5 C1296.30571045 441.45811523 1296.87313965 440.41623047 1297.45776367 439.34277344 C1298.06982666 438.2396582 1298.68188965 437.13654297 1299.3125 436 C1300.26330582 434.26108916 1301.21410931 432.52217704 1302.16468811 430.78314209 C1303.13558629 429.01056086 1304.11056098 427.2402849 1305.08691406 425.47070312 C1307.44628764 421.19034902 1309.78823329 416.90064076 1312.12768555 412.609375 C1313.14263032 410.74882824 1314.15961359 408.88939156 1315.17895508 407.03125 C1317.5378993 402.72529967 1319.84464675 398.41162606 1322 394 C1321.67 394.33 1321.34 394.66 1321 395 C1304.77463978 398.10698387 1288.48059918 394.52281584 1273.453125 388.3046875 C1268.6067777 386.47360153 1265.52965331 385.33618819 1260.6875 387.4375 C1247.69796378 392.58977414 1233.43734224 387.99614908 1220.70996094 384.31494141 C1212.21271847 381.78824501 1212.21271847 381.78824501 1204 384 C1201.3257646 385.93881591 1201.3257646 385.93881591 1199 388.3125 C1187.49444668 399.13817972 1187.49444668 399.13817972 1181 399 C1177.83243614 397.32305443 1175.59284367 396.07229107 1173.8359375 392.89453125 C1171.44046499 390.42260749 1169.44803114 390.42808863 1166.09594727 390.34375 C1164.96564087 390.35921875 1164.96564087 390.35921875 1163.8125 390.375 C1163.04671631 390.37757813 1162.28093262 390.38015625 1161.49194336 390.3828125 C1155.91063068 390.57332131 1152.42159779 391.6785188 1148.34765625 395.6875 C1147 397 1147 397 1145 397 C1144.71125 397.78375 1144.4225 398.5675 1144.125 399.375 C1143 402 1143 402 1141 404 C1137.54531801 403.89635954 1136.23375844 403.22335139 1133.71875 400.8203125 C1132.9865625 399.93085938 1132.254375 399.04140625 1131.5 398.125 C1127.64309357 393.46683484 1124.06071831 389.92097421 1117.875 389.0625 C1107.49873605 388.32985739 1099.48106714 394.37828858 1091.48217773 400.20214844 C1090.50293335 400.91226074 1090.50293335 400.91226074 1089.50390625 401.63671875 C1088.92455322 402.06686279 1088.3452002 402.49700684 1087.74829102 402.94018555 C1083.69764516 405.39568809 1079.427634 405.1842619 1074.78515625 405.31640625 C1073.74602333 405.3475779 1073.74602333 405.3475779 1072.68589783 405.37937927 C1070.47819509 405.44452144 1068.27037463 405.50350455 1066.0625 405.5625 C1064.5813689 405.60573407 1063.10024889 405.64934986 1061.61914062 405.69335938 C1050.64409426 406.01195215 1050.64409426 406.01195215 1047.14501953 405.94702148 C1044.45878519 406.01336713 1043.7204822 406.6557807 1041.8125 408.5 C1038.86743101 411.21205255 1035.86539226 413.79569839 1032.75 416.3125 C1031.91984375 416.98925781 1031.0896875 417.66601562 1030.234375 418.36328125 C1026.19179359 421.32454281 1021.85873832 421.65722064 1017 421 C1015.83984375 420.49210937 1014.6796875 419.98421875 1013.484375 419.4609375 C1007.9946576 417.31463919 1002.71844439 417.965977 996.9375 418.375 C985.41093818 419.01632011 974.13386577 418.77513941 962.61962891 418.10400391 C959.8224243 417.99294993 957.04497083 418.01826411 954.24609375 418.05859375 C950.09333466 418.0817197 946.51744973 417.6418015 942.5 416.5 C934.2040355 414.41617953 926.58705129 414.6959579 918.171875 415.78515625 C915.96125084 416.0038331 913.84437407 415.99652591 911.625 415.9375 C908.22091684 415.88467802 905.20423215 416.29573935 901.875 417 C895.99422361 418.21270248 890.33782226 417.99049177 884.3828125 417.6796875 C880.32812756 418.06361841 878.9115208 419.2422567 876 422 C870.53064137 425.64623908 865.36473703 425.62082604 859 425 C854.98955218 423.92887397 851.17779482 422.44213887 847.3125 420.9375 C838.49560903 417.71062953 831.87342174 416.20010966 822.6328125 417.98828125 C818.75126178 418.00080238 817.61206504 417.42753115 814.328125 415.5859375 C808.43163928 412.38137415 803.23139756 412.30113522 796.625 412.3125 C794.33324042 412.2704118 792.04156508 412.22347808 789.75 412.171875 C788.61820313 412.14931641 787.48640625 412.12675781 786.3203125 412.10351562 C781.40071255 411.95013986 776.52139605 411.55104073 771.625 411.0625 C770.39644287 410.94998901 770.39644287 410.94998901 769.14306641 410.83520508 C761.94492281 410.08900928 761.94492281 410.08900928 759 408 C758.34 406.989375 757.68 405.97875 757 404.9375 C755.30278079 402.00348746 755.30278079 402.00348746 753.125 400.875 C748.78262985 401.13043354 745.63504677 404.41380298 742.5625 407.25 C739.00144156 409.68194235 737.25388906 409.70898151 733 409 C726.312078 405.75737115 721.10000001 400.42106743 715.71875 395.41015625 C708.93262744 389.39429761 703.4978197 386.03531992 694.375 385.6875 C689.05485043 385.34267549 684.96118631 384.63209482 680.2578125 382.1328125 C671.48036832 377.72890452 662.68812316 376.89789473 653.0625 375.875 C651.53700375 375.70537429 650.01161176 375.53480827 648.48632812 375.36328125 C645.58833932 375.03830333 642.68952374 374.72372051 639.78955078 374.41699219 C637.53475426 374.16888032 635.28178184 373.90089465 633.03466797 373.59082031 C628.25445798 372.83967793 628.25445798 372.83967793 624 375 C621.06640625 375.37890625 621.06640625 375.37890625 617.5625 375.5625 C616.31597656 375.63984375 615.06945312 375.7171875 613.78515625 375.796875 C611.39782302 375.92498783 609.00979417 376.04121088 606.62109375 376.140625 C600.64582807 376.46967593 596.55457299 376.76318792 592 381 C590.12753277 383.27776317 588.34029689 385.58653166 586.61328125 387.9765625 C585 390 585 390 582 392 C580.125 392.046875 580.125 392.046875 578 391.75 C577.20851563 391.64429688 576.41703125 391.53859375 575.6015625 391.4296875 C572.84457246 390.97432878 570.11437538 390.42589367 567.375 389.875 C561.7810321 388.83589702 557.2897681 388.56223864 552.3125 391.6875 C551.549375 392.120625 550.78625 392.55375 550 393 C548 392.125 548 392.125 546 391 C543.12401785 391.31091699 540.6721858 392.11373146 537.9375 393.0625 C531.76560383 394.84519211 524.13004997 395.34562051 518.25 392.5 C512.27793393 389.74366181 507.50365637 390.8227526 501.4296875 392.5546875 C496.03998902 393.54251005 490.45797177 393.13798243 485 393 C483.07037909 397.31960824 481.14440916 401.63787968 479.3125 406 C478 409 478 409 477 410 C463.01246882 410.43516764 449.54589169 403.0968462 437.47192383 396.92236328 C418.33080784 387.34595582 398.56783687 389.62595955 377.875 391.375 C374.37017892 391.66248509 370.86492254 391.94417629 367.359375 392.22265625 C366.48729401 392.29230087 365.61521301 392.3619455 364.71670532 392.43370056 C359.06880325 392.87288378 353.42551047 393.19891557 347.765625 393.43359375 C331.11867065 394.14428471 315.51962228 396.06869602 299.3515625 400.38867188 C293.73585274 401.84856984 288.27251769 402.26340475 282.5 402.375 C281.76652344 402.41238281 281.03304688 402.44976562 280.27734375 402.48828125 C276.12219965 402.55517981 273.85264321 402.2585824 270.71875 399.4140625 C268.33273272 396.78046779 268.33273272 396.78046779 265.8125 396.91796875 C263.40985293 398.35230762 262.44032197 399.92109586 261 402.3125 C260.48050781 403.12332031 259.96101563 403.93414062 259.42578125 404.76953125 C258.95527344 405.50558594 258.48476563 406.24164063 258 407 C256.16979081 409.52442647 255.16683243 410.7897812 252.0703125 411.34765625 C250.52903838 411.49431728 248.98577225 411.62106556 247.44140625 411.73046875 C241.36816264 412.40095485 236.12628793 414.77776187 231 418 C224.30661644 420.53886963 218.05363832 418.97728271 211.6875 416.4609375 C209 415 209 415 207.46655273 413.65771484 C200.93205029 407.98308599 193.27781184 406.68119672 185.0625 404.875 C182.23806768 404.23837276 179.41670853 403.58972464 176.59765625 402.9296875 C175.58875839 402.69472565 175.58875839 402.69472565 174.55947876 402.45501709 C170.06871414 401.36839668 165.99869395 399.94480018 161.89233398 397.83642578 C157.05005414 395.69610186 152.00825817 395.85314885 146.8046875 395.82421875 C145.18488306 395.80100476 143.56509138 395.7768868 141.9453125 395.75195312 C139.41788366 395.71702634 136.89092076 395.68758511 134.36328125 395.67407227 C123.55502098 395.60514203 114.62349144 394.99966396 104.85571289 389.875 C100.61224437 387.87413285 94.97467564 389.3725947 90.6640625 390.7421875 C89.92929687 391.01289063 89.19453125 391.28359375 88.4375 391.5625 C81.80120702 393.95861286 76.45995132 393.61889918 70 391 C65.05042363 391.39596611 61.70636203 393.11396384 57.4375 395.5625 C51.34967721 398.87744182 46.94668183 399.30001817 39.97265625 398.859375 C34.90683572 399.0990196 31.87519366 402.00206475 28 405 C22.82356793 407.96883604 17.73994584 408.98998566 11.875 407.4375 C9.9348834 406.83433813 9.9348834 406.83433813 7.75 407.5625 C4.59387946 408.06461009 2.41324207 407.33467094 -0.62109375 406.48828125 C-7.65844408 405.04383332 -14.29295562 405.60462701 -21 408 C-24.79057581 407.69675394 -27.70875349 406.89879606 -31 405 C-31.68835938 405.59425781 -32.37671875 406.18851562 -33.0859375 406.80078125 C-36.15611683 409.11782008 -39.1184768 410.61964078 -42.625 412.1875 C-43.75164062 412.69667969 -44.87828125 413.20585938 -46.0390625 413.73046875 C-51.83116771 416.21389117 -57.19041551 417.23779429 -63.3203125 415.24609375 C-64.95324449 414.5589689 -66.58193906 413.86171638 -68.20703125 413.15625 C-82.08663216 407.41028934 -93.86068602 406.99521844 -108.30200195 410.10766602 C-110.18545439 410.49308124 -112.09317212 410.75516247 -114 411 C-114.99 410.34 -115.98 409.68 -117 409 C-117.37719816 406.73000443 -117.37719816 406.73000443 -117.38031673 403.82998848 C-117.38875668 402.72772018 -117.39719662 401.62545187 -117.40589231 400.4897815 C-117.39988227 399.268796 -117.39387222 398.0478105 -117.38768005 396.78982544 C-117.39306559 395.50053631 -117.39845113 394.21124717 -117.40399987 392.88288867 C-117.41852599 389.29216077 -117.41418761 385.70166097 -117.40683305 382.11092019 C-117.40212121 378.24306311 -117.41459363 374.37525681 -117.42485046 370.50741577 C-117.44208354 362.92499562 -117.44286909 355.34265818 -117.43763756 347.76022352 C-117.43360263 341.59896893 -117.43503135 335.43773886 -117.44038582 329.27648544 C-117.44113424 328.40089716 -117.44188266 327.52530888 -117.44265376 326.62318762 C-117.44418518 324.84464161 -117.44572353 323.0660956 -117.44726873 321.2875496 C-117.46101033 304.59233332 -117.45554467 287.89716385 -117.44408352 271.20194863 C-117.43415159 255.91786292 -117.44708815 240.63389827 -117.47101771 225.34983124 C-117.49538306 209.66968391 -117.50502277 193.98959303 -117.49836498 178.30942714 C-117.49486676 169.50081607 -117.49714432 160.69229813 -117.51461601 151.88370132 C-117.5293061 144.38418862 -117.53001557 136.88483458 -117.5125451 129.38532509 C-117.5040058 125.55696249 -117.50195633 121.72888371 -117.51719666 117.90053558 C-117.53349629 113.75483866 -117.51895826 109.60983252 -117.50120544 105.46414185 C-117.51081045 104.24761779 -117.52041546 103.03109373 -117.53031152 101.77770531 C-117.52049723 100.67022151 -117.51068294 99.56273772 -117.50057125 98.4216938 C-117.50046391 97.46436383 -117.50035658 96.50703387 -117.50024599 95.5206939 C-116.85104298 92.24941915 -115.55349786 91.07654512 -113 89 C-110.51953125 87.9453125 -110.51953125 87.9453125 -107.8125 87.125 C-103.90706234 85.81974805 -100.91765733 84.40242831 -97.625 81.9375 C-87.08545997 74.5710094 -73.64894869 75.64052883 -61.375 75.875 C-58.92536704 75.91018064 -56.47578476 75.94088672 -54.02603149 75.96633911 C-52.51567111 75.98320252 -51.00536338 76.00624942 -49.49520874 76.03634644 C-46.36626355 76.08134485 -43.99538295 75.99846098 -41 75 C-39.90351253 73.194572 -39.90351253 73.194572 -39 71 C-38.15718615 69.42118368 -37.30760718 67.84596933 -36.453125 66.2734375 C-35.94515381 65.33733643 -35.43718262 64.40123535 -34.91381836 63.43676758 C-34.09022827 61.92119263 -34.09022827 61.92119263 -33.25 60.375 C-29.63381682 53.71547928 -26.02340624 47.05327036 -22.44921875 40.37109375 C-15.17914243 26.78684019 -7.73436621 13.32578475 0 0 Z " fill="#FEFEFE" transform="translate(176,100)"/>
<path d="M0 0 C5.22198303 1.54725423 8.71086528 3.39930325 12.875 6.9375 C17.57106268 10.89706838 22.18404218 13.11909449 28 15 C28.495 18.96 28.495 18.96 29 23 C30.1446875 22.7525 30.1446875 22.7525 31.3125 22.5 C33.1378125 22.2525 33.1378125 22.2525 35 22 C35.78890625 21.88527344 36.5778125 21.77054687 37.390625 21.65234375 C44.95984265 21.04370783 49.70083386 23.53466863 56.0546875 27.46875 C59.64224751 30.55195807 61.73324032 33.89236433 64 38 C61.69045239 42.3349135 59.37769267 46.66809961 57.0625 51 C56.71919647 51.64247681 56.37589294 52.28495361 56.02218628 52.94689941 C52.11237613 60.25877 48.17850181 67.55145138 44.0625 74.75 C41.34560137 79.51275976 38.79230725 84.32691638 36.375 89.25 C24.92370522 112.53782828 12.4470579 135.80132407 -1 158 C-4.59380092 156.6809986 -7.56843847 155.05334239 -10.75 152.9375 C-14.99769998 150.30494342 -18.21064434 149.32744298 -23.1875 149.30078125 C-23.785625 149.20152344 -24.38375 149.10226562 -25 149 C-25.66 148.01 -26.32 147.02 -27 146 C-28.55267578 146.02513672 -28.55267578 146.02513672 -30.13671875 146.05078125 C-34.95278316 145.98747606 -37.68695973 144.48213189 -41.8125 142.1875 C-46.3307777 139.77442351 -50.47310481 137.66125176 -55.5 136.5 C-60.30774017 135.23480522 -63.18147366 132.65258582 -66.69921875 129.23046875 C-68.51987753 126.10855835 -67.81544104 124.47263584 -67 121 C-65.79174805 118.28125 -65.79174805 118.28125 -64.26171875 115.5 C-63.69428955 114.45803467 -63.12686035 113.41606934 -62.54223633 112.3425293 C-61.93017334 111.23949463 -61.31811035 110.13645996 -60.6875 109 C-59.73667253 107.26215389 -58.78584805 105.52430612 -57.83531189 103.78630066 C-56.86427237 102.0142113 -55.88920534 100.24439323 -54.91308594 98.47509766 C-53.0996464 95.18100649 -51.3004972 91.87964169 -49.5078125 88.57421875 C-41.48498304 73.79084707 -41.48498304 73.79084707 -39.19140625 70.05078125 C-37.84699001 68.02660545 -37.84699001 68.02660545 -37.625 65.5 C-37 63 -37 63 -34.67016602 60.70874023 C-31.96944378 57.96900235 -30.42538846 55.55493788 -28.65234375 52.16015625 C-28.05276855 51.02481445 -27.45319336 49.88947266 -26.83544922 48.71972656 C-26.20279117 47.50065535 -25.57014161 46.28157974 -24.9375 45.0625 C-24.27728348 43.80769989 -23.61597546 42.55347351 -22.95361328 41.29980469 C-21.6119441 38.75960542 -20.27376639 36.21761797 -18.93798828 33.67431641 C-16.13100254 28.34053786 -13.25886613 23.04252108 -10.375 17.75 C-9.66718384 16.44107788 -9.66718384 16.44107788 -8.94506836 15.10571289 C-6.13874186 9.95128708 -3.17407256 4.9366849 0 0 Z " fill="#E6CA78" transform="translate(1536,427)"/>
<path d="M0 0 C4.70530103 0.51355793 7.70073207 1.75513662 11.625 4.375 C12.54539062 4.98085937 13.46578125 5.58671875 14.4140625 6.2109375 C16.00796183 7.31366544 17.57947193 8.45070039 19.109375 9.640625 C21.16176311 11.23957589 21.16176311 11.23957589 24.625 12.375 C28 14 28 14 29.4375 16.5 C30 19 30 19 30 22 C30.96679688 21.86980469 31.93359375 21.73960938 32.9296875 21.60546875 C42.83546153 20.55604516 48.95435649 21.50305075 57.05859375 27.53125 C63.31502193 32.63004386 63.31502193 32.63004386 65 36 C64.61674097 40.91849092 62.85591202 44.52767594 60.375 48.6875 C59.55854435 50.0968742 58.74355522 51.50709853 57.9296875 52.91796875 C57.24084473 54.10592041 57.24084473 54.10592041 56.53808594 55.31787109 C53.80078917 60.09119526 51.14671559 64.91089742 48.48245239 69.72525024 C43.36856551 78.96322408 38.22822678 88.18570973 33.02734375 97.375 C29.35713633 103.90023156 25.81437892 110.49683497 22.24609375 117.078125 C14.97862951 130.47028966 7.53667359 143.75761686 0 157 C-3.40686306 156.23810316 -5.62769955 155.07409398 -8.5 153.0625 C-13.83070203 149.15834214 -13.83070203 149.15834214 -20.125 148.0625 C-21.07375 148.041875 -22.0225 148.02125 -23 148 C-23.66 147.01 -24.32 146.02 -25 145 C-27.05925139 144.27617533 -27.05925139 144.27617533 -29 144 C-29 144.66 -29 145.32 -29 146 C-35.33975357 145.44613697 -39.70340556 142.48784492 -44.99023438 139.23828125 C-49.40686705 136.62133111 -52.82511265 135.59415373 -58 135 C-60.6875 132.6875 -60.6875 132.6875 -63 130 C-64.1446875 128.8553125 -64.1446875 128.8553125 -65.3125 127.6875 C-65.869375 127.130625 -66.42625 126.57375 -67 126 C-65.5171208 121.01566259 -63.39693182 116.67429267 -60.9375 112.125 C-60.54264404 111.38685059 -60.14778809 110.64870117 -59.7409668 109.88818359 C-55.93034803 102.79806379 -51.97420573 95.79114612 -48.00927734 88.78662109 C-46.53516855 86.17715613 -45.07441441 83.56076115 -43.625 80.9375 C-43.18414062 80.14214844 -42.74328125 79.34679687 -42.2890625 78.52734375 C-40.91978842 75.92246717 -40.91978842 75.92246717 -39.66796875 72.8046875 C-37.67811378 68.08576167 -35.16683627 63.66286401 -32.6875 59.1875 C-31.60729596 57.22438566 -30.52790279 55.26082496 -29.44921875 53.296875 C-28.88509277 52.27013672 -28.3209668 51.24339844 -27.73974609 50.18554688 C-25.38843186 45.88019351 -23.07542246 41.55476561 -20.76147461 37.22924805 C-14.05351674 24.69378084 -7.13680361 12.29622521 0 0 Z " fill="#E7CB79" transform="translate(176,100)"/>
<path d="M0 0 C7.71294118 1.05176471 7.71294118 1.05176471 10 3 C10.657321 5.70109219 10.81964244 8.2044578 11 11 C11.763125 10.835 12.52625 10.67 13.3125 10.5 C21.54322739 9.38396917 27.67905497 8.88669297 34.63671875 13.90625 C35.08660156 14.2671875 35.53648438 14.628125 36 15 C35.67 15.66 35.34 16.32 35 17 C33.68 16.67 32.36 16.34 31 16 C31 15.34 31 14.68 31 14 C30.34 14 29.68 14 29 14 C29 13.34 29 12.68 29 12 C27.39592672 11.97291433 25.7917215 11.95356517 24.1875 11.9375 C23.29417969 11.92589844 22.40085937 11.91429687 21.48046875 11.90234375 C18.86586209 11.88990033 18.86586209 11.88990033 16 13 C13.66700175 13.03954234 11.33291811 13.04401732 9 13 C8.77957031 12.07767578 8.77957031 12.07767578 8.5546875 11.13671875 C7.07960854 5.60212048 7.07960854 5.60212048 2.8125 1.9375 C1.884375 1.628125 0.95625 1.31875 0 1 C0 0.67 0 0.34 0 0 Z " fill="#E5D295" transform="translate(1554,439)"/>
<path d="M0 0 C0.33 1.32 0.66 2.64 1 4 C0.34 4 -0.32 4 -1 4 C-0.77441406 4.57234375 -0.54882812 5.1446875 -0.31640625 5.734375 C0 8 0 8 -1.21484375 10.078125 C-1.78332031 10.79484375 -2.35179688 11.5115625 -2.9375 12.25 C-5.07535643 15.28695493 -6.48870406 17.50127656 -6.6875 21.25 C-5.87071271 25.70520341 -4.48667067 27.21066347 -1 30 C-1.66 30.33 -2.32 30.66 -3 31 C-5.66666667 28.33333333 -8.33333333 25.66666667 -11 23 C-9.44347945 17.6462535 -7.0182491 12.99849053 -4.375 8.125 C-3.95476562 7.34125 -3.53453125 6.5575 -3.1015625 5.75 C-2.0718978 3.83107943 -1.03652433 1.91522397 0 0 Z " fill="#E5D396" transform="translate(120,203)"/>
<path d="M0 0 C1.11667102 3.76477658 0.77699869 5.44600261 -1 9 C-1.98560611 10.34400833 -2.98758315 11.67607028 -4 13 C-6.52151116 17.25505008 -8.83051666 21.55255915 -11 26 C-11.66 26 -12.32 26 -13 26 C-11.36036204 20.05384306 -8.37624538 14.96477922 -5.375 9.625 C-4.6015625 8.23474609 -4.6015625 8.23474609 -3.8125 6.81640625 C-2.54617189 4.54170575 -1.27524075 2.26971208 0 0 Z " fill="#FDF8E2" transform="translate(196,219)"/>
<path d="M0 0 C0.66 0 1.32 0 2 0 C0.02014862 5.11913628 -2.45250705 9.89520629 -5 14.75 C-5.45117188 15.62527344 -5.90234375 16.50054687 -6.3671875 17.40234375 C-6.80289062 18.23378906 -7.23859375 19.06523437 -7.6875 19.921875 C-8.08324219 20.68081055 -8.47898437 21.43974609 -8.88671875 22.22167969 C-10 24 -10 24 -12 25 C-12 23.68 -12 22.36 -12 21 C-11.34 21 -10.68 21 -10 21 C-9.87625 19.081875 -9.87625 19.081875 -9.75 17.125 C-9.48828125 14.9140625 -9.48828125 14.9140625 -9 13 C-6.9375 11.5 -6.9375 11.5 -5 11 C-5 10.01 -5 9.02 -5 8 C-4.34 8 -3.68 8 -3 8 C-2.87625 7.4225 -2.7525 6.845 -2.625 6.25 C-1.99351176 3.97664233 -1.11141809 2.0746471 0 0 Z " fill="#E4D18D" transform="translate(1595,469)"/>
<path d="M0 0 C0.58203125 1.88671875 0.58203125 1.88671875 1 4 C0.02248365 5.34990354 -0.98199424 6.68036291 -2 8 C-2.68255989 10.32873375 -3.35050775 12.66182791 -4 15 C-4.66 15.66 -5.32 16.32 -6 17 C-6.73797743 18.19045994 -7.44478681 19.40061625 -8.125 20.625 C-9.053125 22.295625 -9.053125 22.295625 -10 24 C-10.66 24 -11.32 24 -12 24 C-10.42195846 18.39523177 -7.73583615 13.64949374 -4.875 8.625 C-4.17310547 7.37783203 -4.17310547 7.37783203 -3.45703125 6.10546875 C-2.30929451 4.06765046 -1.15686718 2.03264431 0 0 Z " fill="#FDF8E2" transform="translate(1587,487)"/>
<path d="M0 0 C-1.68065002 3.60139289 -3.21729673 6.21729673 -6 9 C-6.495 10.03125 -6.99 11.0625 -7.5 12.125 C-9 15 -9 15 -12 16 C-11.06253955 12.89916929 -10.12912083 10.21175817 -8.4375 7.4375 C-6.94234283 4.9022335 -6.5553261 2.85596281 -6 0 C-3.50907189 -1.24546405 -2.58919267 -0.7767578 0 0 Z " fill="#D9C381" transform="translate(1505,490)"/>
<path d="M0 0 C1.28500199 3.85500597 0.37883497 5.22634641 -1 9 C-1.6958583 11.3257546 -2.34540061 13.66214502 -3 16 C-3.99 16 -4.98 16 -6 16 C-7.04892238 17.63631892 -8.04906703 19.30485863 -9 21 C-9.66 21.33 -10.32 21.66 -11 22 C-9.23465356 17.15984684 -6.80463275 12.7164873 -4.375 8.1875 C-3.95476562 7.39923828 -3.53453125 6.61097656 -3.1015625 5.79882812 C-2.0699991 3.86464674 -1.03608828 1.93176017 0 0 Z " fill="#E6CF8C" transform="translate(135,176)"/>
<path d="M0 0 C1.32 0.66 2.64 1.32 4 2 C2.68 2 1.36 2 0 2 C-0.33 5.3 -0.66 8.6 -1 12 C-1.99 12 -2.98 12 -4 12 C-4.28875 12.598125 -4.5775 13.19625 -4.875 13.8125 C-6 16 -6 16 -8 19 C-8.66 19 -9.32 19 -10 19 C-8.71634667 13.99375202 -6.36537671 10.32066181 -3.4375 6.1484375 C-2.10303553 4.15399332 -1.02046811 2.16849473 0 0 Z " fill="#E6D18F" transform="translate(1536,427)"/>
<path d="M0 0 C0.33 0.99 0.66 1.98 1 3 C-1.97 2.505 -1.97 2.505 -5 2 C-5.40992188 2.78246094 -5.81984375 3.56492187 -6.2421875 4.37109375 C-6.78101563 5.38300781 -7.31984375 6.39492188 -7.875 7.4375 C-8.40867187 8.44683594 -8.94234375 9.45617187 -9.4921875 10.49609375 C-11 13 -11 13 -13 14 C-12.60217121 12.22483971 -12.18096339 10.45490837 -11.75 8.6875 C-11.51796875 7.70136719 -11.2859375 6.71523438 -11.046875 5.69921875 C-8.90382069 0.17365707 -5.5602689 -0.37910924 0 0 Z " fill="#FCF8DF" transform="translate(1541,426)"/>
<path d="M0 0 C2.97 0.33 5.94 0.66 9 1 C9.33 1.99 9.66 2.98 10 4 C12.50447516 5.21869929 12.50447516 5.21869929 15 6 C15.66 4.68 16.32 3.36 17 2 C17.66 2 18.32 2 19 2 C18.25 4.9375 18.25 4.9375 17 8 C15.16796875 8.8671875 15.16796875 8.8671875 13 9 C11.03515625 7.85546875 11.03515625 7.85546875 9.0625 6.1875 C6.14085821 3.83380353 3.62775332 2.13367291 0 1 C0 0.67 0 0.34 0 0 Z " fill="#E5D192" transform="translate(160,248)"/>
<path d="M0 0 C6.28116711 4.75331565 6.28116711 4.75331565 8 8 C7.86321065 11.35133916 7.60270411 13.27675506 5.4375 15.875 C4.7259375 16.431875 4.7259375 16.431875 4 17 C4 15.68 4 14.36 4 13 C4.66 13 5.32 13 6 13 C5.67 12.01 5.34 11.02 5 10 C4.34 10.66 3.68 11.32 3 12 C1.95550089 8.86650268 2.06576355 8.01031744 3 5 C1.68 4.67 0.36 4.34 -1 4 C-0.67 2.68 -0.34 1.36 0 0 Z " fill="#DBC781" transform="translate(233,128)"/>
<path d="M0 0 C0.556875 0.144375 1.11375 0.28875 1.6875 0.4375 C2.8321875 0.7159375 2.8321875 0.7159375 4 1 C4.763125 1.20625 5.52625 1.4125 6.3125 1.625 C9.70252511 2.09802676 12.64547623 1.59197478 16 1 C16.33 2.32 16.66 3.64 17 5 C18.98 5 20.96 5 23 5 C20 7 20 7 17.875 6.75 C16 6 16 6 15 4 C12.97536745 3.34786708 12.97536745 3.34786708 11 3 C11 3.66 11 4.32 11 5 C6.62886504 4.49172849 3.61004338 3.54826592 0 1 C0 0.67 0 0.34 0 0 Z " fill="#E4D090" transform="translate(136,241)"/>
<path d="M0 0 C-0.66 0.66 -1.32 1.32 -2 2 C-5.125 1.625 -5.125 1.625 -8 1 C-8 1.99 -8 2.98 -8 4 C-10.375 4.1875 -10.375 4.1875 -13 4 C-13.66 3.01 -14.32 2.02 -15 1 C-9.675665 -1.32086397 -5.56157448 -0.91457003 0 0 Z " fill="#DEC47B" transform="translate(224,122)"/>
<path d="M0 0 C6.53693412 -0.69541852 10.64875147 1.29913653 16 5 C17.8418071 6.58113371 19.38570812 8.17741239 21 10 C17.1509323 9.47985572 15.64257753 8.74828063 13 6 C8.68636377 3.45103314 4.97236451 2.49723645 0 2 C0 1.34 0 0.68 0 0 Z " fill="#FAF4DB" transform="translate(152,247)"/>
<path d="M0 0 C0.33 0 0.66 0 1 0 C0.57526674 5.41534902 -0.45659863 7.95039843 -4 12 C-4.73180416 13.23640559 -5.43971059 14.48721952 -6.125 15.75 C-8 19 -8 19 -10 20 C-8.34229667 15.50675151 -6.15017838 11.38813854 -3.875 7.1875 C-3.50246094 6.49462891 -3.12992188 5.80175781 -2.74609375 5.08789062 C-1.83309623 3.39065164 -0.91687284 1.69514862 0 0 Z " fill="#E5D196" transform="translate(1525,446)"/>
<path d="M0 0 C0.66 0 1.32 0 2 0 C0.3341708 6.16356805 -2.87805286 11.48259656 -6 17 C-6.66 16.34 -7.32 15.68 -8 15 C-7.65933682 11.60046537 -6.09664278 9.55326347 -4 6.9375 C-2.0569079 4.50396398 -0.9987139 2.99614169 0 0 Z " fill="#FEFAE5" transform="translate(115,209)"/>
<path d="M0 0 C0.99 0.495 0.99 0.495 2 1 C2 1.66 2 2.32 2 3 C2.80824219 3.18175781 3.61648437 3.36351562 4.44921875 3.55078125 C5.51785156 3.80214844 6.58648437 4.05351562 7.6875 4.3125 C8.74324219 4.55613281 9.79898438 4.79976562 10.88671875 5.05078125 C13.97575628 5.99260825 16.31817964 7.22372937 19 9 C18.01 9.495 18.01 9.495 17 10 C15.33500811 9.26740357 13.67144818 8.5311519 12.01953125 7.76953125 C8.73026814 6.51617568 5.49468254 6.3065511 2 6 C1.34 4.02 0.68 2.04 0 0 Z " fill="#FBF4D9" transform="translate(113,230)"/>
<path d="M0 0 C0.33 0.99 0.66 1.98 1 3 C2.65 3 4.3 3 6 3 C6 3.66 6 4.32 6 5 C6.66 5 7.32 5 8 5 C8 5.66 8 6.32 8 7 C8.99 7.33 9.98 7.66 11 8 C10.01 8.495 10.01 8.495 9 9 C7.08203125 8.0390625 7.08203125 8.0390625 4.8125 6.625 C0.73246304 4.24167744 -2.31095899 3.29930049 -7 3 C-4.38058783 1.25372522 -2.96175123 0.61277612 0 0 Z " fill="#E4D08D" transform="translate(125,232)"/>
<path d="M0 0 C4.20233434 2.41952583 8.07927649 5.15555353 12 8 C11.34 8.66 10.68 9.32 10 10 C5.125 7.375 5.125 7.375 4 4 C1.98491642 3.26676204 1.98491642 3.26676204 0 3 C0 2.01 0 1.02 0 0 Z " fill="#E7D194" transform="translate(1541,429)"/>
<path d="M0 0 C0.66 0 1.32 0 2 0 C1.42176904 4.06225548 0.10882263 6.84762346 -2.0625 10.3125 C-2.61035156 11.19550781 -3.15820312 12.07851562 -3.72265625 12.98828125 C-4.14417969 13.65214844 -4.56570312 14.31601563 -5 15 C-5.33 13.68 -5.66 12.36 -6 11 C-5.34 11 -4.68 11 -4 11 C-3.896875 9.9275 -3.79375 8.855 -3.6875 7.75 C-3.02797801 4.15260731 -2.54223809 2.54223809 0 0 Z " fill="#E4D18F" transform="translate(199,209)"/>
<path d="M0 0 C1.32 0 2.64 0 4 0 C4.6875 1.625 4.6875 1.625 5 4 C3.5625 7.25 3.5625 7.25 2 10 C1.34 10 0.68 10 0 10 C-1.11170388 6.66488837 -0.82428809 4.38873993 0 1 C0 0.67 0 0.34 0 0 Z " fill="#DDC475" transform="translate(1569,510)"/>
<path d="M0 0 C0.66 0 1.32 0 2 0 C0.3341708 6.16356805 -2.87805286 11.48259656 -6 17 C-7.13643966 13.59068103 -6.86747764 12.99664544 -5.5625 9.8125 C-5.27503906 9.09707031 -4.98757813 8.38164062 -4.69140625 7.64453125 C-4.46324219 7.10183594 -4.23507812 6.55914062 -4 6 C-3.34 6 -2.68 6 -2 6 C-1.855625 5.38125 -1.71125 4.7625 -1.5625 4.125 C-1 2 -1 2 0 0 Z " fill="#FDF9E3" transform="translate(1517,457)"/>
<path d="M0 0 C0.66 0 1.32 0 2 0 C0.3341708 6.16356805 -2.87805286 11.48259656 -6 17 C-6.6171875 15.1875 -6.6171875 15.1875 -7 13 C-5.7260411 10.96166576 -4.38938077 8.96147874 -3 7 C-2.23060319 4.77397385 -2.23060319 4.77397385 -2 3 C-1.34 3 -0.68 3 0 3 C0 2.01 0 1.02 0 0 Z " fill="#E4D091" transform="translate(191,224)"/>
<path d="M0 0 C0.99 0.66 1.98 1.32 3 2 C1.02 5.63 -0.96 9.26 -3 13 C-3.33 11.68 -3.66 10.36 -4 9 C-3.34 9 -2.68 9 -2 9 C-2.04125 7.88625 -2.0825 6.7725 -2.125 5.625 C-2 2 -2 2 0 0 Z " fill="#E6D18D" transform="translate(206,195)"/>
<path d="M0 0 C0.66 0.33 1.32 0.66 2 1 C-0.6868116 6.57264628 -3.63278357 11.81117468 -7 17 C-8 14 -8 14 -6.34765625 10.64453125 C-5.59622298 9.36110983 -4.83403499 8.08393866 -4.0625 6.8125 C-3.48338867 5.83120117 -3.48338867 5.83120117 -2.89257812 4.83007812 C-1.93746912 3.21464684 -0.96989934 1.60659475 0 0 Z " fill="#E1CD91" transform="translate(144,158)"/>
<path d="M0 0 C2.93375101 0.67057166 4.61941083 1.4959765 6.4453125 3.9140625 C7.6840771 5.91732182 8.87054327 7.93333449 10 10 C9.01 11.32 8.02 12.64 7 14 C6.51171875 12.01432292 6.0234375 10.02864583 5.53515625 8.04296875 C5.08989295 6.34316798 4.55566015 4.66698046 4 3 C1.98491642 2.26676204 1.98491642 2.26676204 0 2 C0 1.34 0 0.68 0 0 Z " fill="#E4D198" transform="translate(1590,455)"/>
<path d="M0 0 C0.68359375 1.671875 0.68359375 1.671875 1 4 C-0.21484375 6.578125 -0.21484375 6.578125 -1.9375 9.25 C-2.50339844 10.14203125 -3.06929687 11.0340625 -3.65234375 11.953125 C-4.09707031 12.62859375 -4.54179687 13.3040625 -5 14 C-5.66 13.67 -6.32 13.34 -7 13 C-4.82779123 8.55634449 -2.62471619 4.1995459 0 0 Z " fill="#FDF7E2" transform="translate(206,201)"/>
<path d="M0 0 C0.66 0.99 1.32 1.98 2 3 C0.35 5.97 -1.3 8.94 -3 12 C-4.07156762 7.71372952 -4.0365854 7.33924618 -2.0625 3.75 C-1.68222656 3.04359375 -1.30195312 2.3371875 -0.91015625 1.609375 C-0.60980469 1.07828125 -0.30945312 0.5471875 0 0 Z " fill="#E6D08C" transform="translate(1581,493)"/>
<path d="M0 0 C1.0169313 2.65498232 1.13022151 3.69155375 0.00390625 6.359375 C-0.47175781 7.14828125 -0.94742187 7.9371875 -1.4375 8.75 C-1.91058594 9.54921875 -2.38367187 10.3484375 -2.87109375 11.171875 C-3.24363281 11.77515625 -3.61617187 12.3784375 -4 13 C-4.66 13 -5.32 13 -6 13 C-4.58707905 8.1725201 -2.57025846 4.2837641 0 0 Z " fill="#FDF8E1" transform="translate(1599,465)"/>
<path d="M0 0 C0.66 0.99 1.32 1.98 2 3 C1.34 4.32 0.68 5.64 0 7 C0.66 7.33 1.32 7.66 2 8 C0.02 9.32 -1.96 10.64 -4 12 C-4 11.01 -4 10.02 -4 9 C-3.34 9 -2.68 9 -2 9 C-1.7834375 7.329375 -1.7834375 7.329375 -1.5625 5.625 C-1 2 -1 2 0 0 Z " fill="#E7CF88" transform="translate(123,198)"/>
<path d="M0 0 C0.66 1.32 1.32 2.64 2 4 C1.01 4.33 0.02 4.66 -1 5 C-1.33 6.65 -1.66 8.3 -2 10 C-2.99 10.33 -3.98 10.66 -5 11 C-3.55049545 7.2089881 -1.84827434 3.6125362 0 0 Z " fill="#DEC889" transform="translate(1476,535)"/>
<path d="M0 0 C0.6875 1.6875 0.6875 1.6875 1 4 C-0.25 6.6875 -0.25 6.6875 -2 9 C-2.99 9.33 -3.98 9.66 -5 10 C-5.33 9.01 -5.66 8.02 -6 7 C-5.01 6.67 -4.02 6.34 -3 6 C-1.29144978 2.99992729 -1.29144978 2.99992729 0 0 Z " fill="#FCF8E5" transform="translate(179,250)"/>
<path d="M0 0 C4.75 0.875 4.75 0.875 7 2 C7 2.66 7 3.32 7 4 C5.02 4.33 3.04 4.66 1 5 C0.67 3.35 0.34 1.7 0 0 Z " fill="#E1C76F" transform="translate(1510,569)"/>
<path d="M0 0 C0.66 0 1.32 0 2 0 C0.77472971 4.05281712 -0.69880494 7.44360764 -3 11 C-4 8 -4 8 -3.22265625 5.95703125 C-2.83980469 5.24933594 -2.45695312 4.54164063 -2.0625 3.8125 C-1.68222656 3.09707031 -1.30195312 2.38164062 -0.91015625 1.64453125 C-0.60980469 1.10183594 -0.30945312 0.55914062 0 0 Z " fill="#FEF8E3" transform="translate(1507,475)"/>
<path d="M0 0 C0.99 0.33 1.98 0.66 3 1 C1.68 3.31 0.36 5.62 -1 8 C-1.66 8 -2.32 8 -3 8 C-3.36923077 3.44615385 -3.36923077 3.44615385 -1.5 1.1875 C-1.005 0.795625 -0.51 0.40375 0 0 Z " fill="#E1C883" transform="translate(1539,572)"/>
<path d="M0 0 C1.32 0 2.64 0 4 0 C4.66 1.32 5.32 2.64 6 4 C3.03 4 0.06 4 -3 4 C-3 3.34 -3 2.68 -3 2 C-2.01 2 -1.02 2 0 2 C0 1.34 0 0.68 0 0 Z " fill="#DDC483" transform="translate(1514,572)"/>
<path d="M0 0 C1.0326802 2.78823655 1.04509293 3.8677274 0.0625 6.75 C-0.288125 7.4925 -0.63875 8.235 -1 9 C-1.99 9 -2.98 9 -4 9 C-2.94124926 5.59687262 -1.99097846 2.98646769 0 0 Z " fill="#DDC582" transform="translate(1485,519)"/>
<path d="M0 0 C1 3 1 3 0.22265625 5.04296875 C-0.16019531 5.75066406 -0.54304688 6.45835937 -0.9375 7.1875 C-1.31777344 7.90292969 -1.69804688 8.61835938 -2.08984375 9.35546875 C-2.54037109 10.16951172 -2.54037109 10.16951172 -3 11 C-3.99 11 -4.98 11 -6 11 C-4.02 7.37 -2.04 3.74 0 0 Z " fill="#E4D297" transform="translate(1508,477)"/>
<path d="M0 0 C3.63 1.65 7.26 3.3 11 5 C11 5.33 11 5.66 11 6 C3.25531915 5.25531915 3.25531915 5.25531915 0 2 C0 1.34 0 0.68 0 0 Z " fill="#FDF7DD" transform="translate(133,240)"/>
<path d="M0 0 C0 0.66 0 1.32 0 2 C-2.5614657 4.29648649 -3.47967572 5 -7 5 C-7 4.01 -7 3.02 -7 2 C-4.35261084 0.5393715 -3.10551666 0 0 0 Z " fill="#EAEAEA" transform="translate(77,185)"/>
<path d="M0 0 C4.21912747 0.4794463 6.79663178 1.16625119 10 4 C7.03 3.67 4.06 3.34 1 3 C0.67 2.01 0.34 1.02 0 0 Z " fill="#D7C47C" transform="translate(176,100)"/>
<path d="M0 0 C0.66 0.33 1.32 0.66 2 1 C-0.475 5.455 -0.475 5.455 -3 10 C-4 6 -4 6 -2.0625 2.75 C-1.381875 1.8425 -0.70125 0.935 0 0 Z " fill="#FDF8E3" transform="translate(125,192)"/>
<path d="M0 0 C2.64 1.65 5.28 3.3 8 5 C6.02 5.99 6.02 5.99 4 7 C0 2.25 0 2.25 0 0 Z " fill="#D7C380" transform="translate(186,104)"/>
<path d="M0 0 C1.485 0.99 1.485 0.99 3 2 C1.25 5.875 1.25 5.875 -1 7 C-1.04254356 5.00045254 -1.04080783 2.99958364 -1 1 C-0.67 0.67 -0.34 0.34 0 0 Z " fill="#D5D5D5" transform="translate(659,488)"/>
<path d="M0 0 C1 3 1 3 -0.4375 6.1875 C-1.2109375 7.5796875 -1.2109375 7.5796875 -2 9 C-2.66 7.68 -3.32 6.36 -4 5 C-3.34 4.01 -2.68 3.02 -2 2 C-1.34 2 -0.68 2 0 2 C0 1.34 0 0.68 0 0 Z " fill="#F5EBD5" transform="translate(135,173)"/>
<path d="M0 0 C0.66 0.33 1.32 0.66 2 1 C2 1.99 2 2.98 2 4 C2.66 4 3.32 4 4 4 C4 4.66 4 5.32 4 6 C1.03 5.505 1.03 5.505 -2 5 C-1.34 3.35 -0.68 1.7 0 0 Z " fill="#DEC577" transform="translate(204,118)"/>
<path d="M0 0 C2.99529289 0.99843096 4.15840327 1.51384442 6 4 C5.578125 6.10546875 5.578125 6.10546875 5 8 C4.16382818 6.8562364 3.33113541 5.70992861 2.5 4.5625 C2.0359375 3.92441406 1.571875 3.28632813 1.09375 2.62890625 C0 1 0 1 0 0 Z " fill="#FEF8E5" transform="translate(1594,456)"/>
<path d="M0 0 C0.66 0 1.32 0 2 0 C0.90931332 3.77545388 0.0916909 6.47043472 -3 9 C-2.5020163 5.26512223 -2.12508244 3.18762365 0 0 Z " fill="#E4D08F" transform="translate(182,241)"/>
</svg>
